<svg width="25" height="25" viewBox="0 0 25 25" fill="none" xmlns="http://www.w3.org/2000/svg">
<g clip-path="url(#clip0_17_49)">
<path fill-rule="evenodd" clip-rule="evenodd" d="M24.1416 12.4813C24.1416 19.1087 18.769 24.4813 12.1416 24.4813C5.51418 24.4813 0.141602 19.1087 0.141602 12.4813C0.141602 5.85391 5.51418 0.481323 12.1416 0.481323C18.769 0.481323 24.1416 5.85391 24.1416 12.4813ZM13.0171 12.9511H15.1584L15.4418 10.1968H13.0174V8.57423C13.0174 7.96566 13.4195 7.82276 13.7055 7.82276H15.4491V5.14673L13.046 5.13668C10.379 5.13668 9.77296 7.1344 9.77296 8.41017V10.1942H8.23002V12.9511H9.77296V20.7956H13.0171V12.9511Z" fill="black" fill-opacity="0.6"/>
</g>
<defs>
<clipPath id="clip0_17_49">
<rect width="24" height="24" fill="white" transform="translate(0.141602 0.481323)"/>
</clipPath>
</defs>
</svg>
