<svg width="25" height="25" viewBox="0 0 25 25" fill="none" xmlns="http://www.w3.org/2000/svg">
<g clip-path="url(#clip0_17_61)">
<path fill-rule="evenodd" clip-rule="evenodd" d="M24.2832 12.0347C24.2832 18.6621 18.9106 24.0347 12.2832 24.0347C5.65579 24.0347 0.283203 18.6621 0.283203 12.0347C0.283203 5.40725 5.65579 0.034668 12.2832 0.034668C18.9106 0.034668 24.2832 5.40725 24.2832 12.0347ZM13.1587 12.5044H15.3L15.5834 9.7501H13.159V8.12758C13.159 7.519 13.5611 7.37611 13.8471 7.37611H15.5907V4.70008L13.1876 4.69002C10.5206 4.69002 9.91456 6.68774 9.91456 7.96351V9.74753H8.37162V12.5044H9.91456V20.349H13.1587V12.5044Z" fill="white" fill-opacity="0.6"/>
</g>
<defs>
<clipPath id="clip0_17_61">
<rect width="24" height="24" fill="white" transform="translate(0.283203 0.034668)"/>
</clipPath>
</defs>
</svg>
