<svg width="25" height="25" viewBox="0 0 25 25" fill="none" xmlns="http://www.w3.org/2000/svg">
<g clip-path="url(#clip0_17_45)">
<path d="M14.4385 12.4813C14.4385 13.7499 13.4102 14.7782 12.1416 14.7782C10.873 14.7782 9.84473 13.7499 9.84473 12.4813C9.84473 11.2128 10.873 10.1844 12.1416 10.1844C13.4102 10.1844 14.4385 11.2128 14.4385 12.4813Z" fill="black" fill-opacity="0.6"/>
<path d="M17.5129 8.41748C17.4025 8.11829 17.2264 7.84747 16.9975 7.62518C16.7752 7.3963 16.5046 7.22015 16.2052 7.10974C15.9624 7.01544 15.5977 6.9032 14.9258 6.87262C14.1991 6.83948 13.9812 6.83234 12.1414 6.83234C10.3013 6.83234 10.0834 6.83929 9.35687 6.87244C8.68506 6.9032 8.32013 7.01544 8.07751 7.10974C7.77814 7.22015 7.50732 7.3963 7.28522 7.62518C7.05634 7.84747 6.88019 8.1181 6.76959 8.41748C6.67529 8.66028 6.56305 9.02521 6.53247 9.69702C6.49933 10.4236 6.49219 10.6415 6.49219 12.4815C6.49219 14.3214 6.49933 14.5392 6.53247 15.266C6.56305 15.9378 6.67529 16.3026 6.76959 16.5453C6.88019 16.8447 7.05615 17.1154 7.28503 17.3376C7.50732 17.5665 7.77795 17.7427 8.07733 17.8531C8.32013 17.9476 8.68506 18.0598 9.35687 18.0904C10.0834 18.1235 10.3011 18.1305 12.1412 18.1305C13.9814 18.1305 14.1993 18.1235 14.9257 18.0904C15.5975 18.0598 15.9624 17.9476 16.2052 17.8531C16.8062 17.6213 17.2811 17.1463 17.5129 16.5453C17.6072 16.3026 17.7195 15.9378 17.7502 15.266C17.7834 14.5392 17.7903 14.3214 17.7903 12.4815C17.7903 10.6415 17.7834 10.4236 17.7502 9.69702C17.7197 9.02521 17.6074 8.66028 17.5129 8.41748ZM12.1414 16.0197C10.1871 16.0197 8.60284 14.4356 8.60284 12.4813C8.60284 10.527 10.1871 8.94299 12.1414 8.94299C14.0955 8.94299 15.6797 10.527 15.6797 12.4813C15.6797 14.4356 14.0955 16.0197 12.1414 16.0197ZM15.8196 9.63C15.3629 9.63 14.9927 9.25977 14.9927 8.8031C14.9927 8.34644 15.3629 7.9762 15.8196 7.9762C16.2762 7.9762 16.6465 8.34644 16.6465 8.8031C16.6463 9.25977 16.2762 9.63 15.8196 9.63Z" fill="black" fill-opacity="0.6"/>
<path d="M12.1416 0.481323C5.5152 0.481323 0.141602 5.85492 0.141602 12.4813C0.141602 19.1077 5.5152 24.4813 12.1416 24.4813C18.768 24.4813 24.1416 19.1077 24.1416 12.4813C24.1416 5.85492 18.768 0.481323 12.1416 0.481323ZM18.9907 15.3222C18.9573 16.0557 18.8407 16.5565 18.6704 16.9949C18.3124 17.9205 17.5807 18.6522 16.6552 19.0101C16.217 19.1804 15.716 19.2969 14.9827 19.3304C14.2479 19.3639 14.0131 19.3719 12.1418 19.3719C10.2703 19.3719 10.0357 19.3639 9.30072 19.3304C8.56738 19.2969 8.06641 19.1804 7.62823 19.0101C7.16827 18.8371 6.75189 18.5659 6.40765 18.2153C6.05719 17.8712 5.78601 17.4547 5.61298 16.9949C5.44269 16.5567 5.32605 16.0557 5.29272 15.3224C5.25885 14.5874 5.25098 14.3527 5.25098 12.4813C5.25098 10.61 5.25885 10.3752 5.29254 9.64044C5.32587 8.90692 5.44232 8.40613 5.61261 7.96777C5.78564 7.508 6.05701 7.09143 6.40765 6.74738C6.75171 6.39673 7.16827 6.12555 7.62805 5.95251C8.06641 5.78223 8.5672 5.66577 9.30072 5.63226C10.0355 5.59875 10.2703 5.5907 12.1416 5.5907C14.0129 5.5907 14.2477 5.59875 14.9825 5.63245C15.716 5.66577 16.2168 5.78223 16.6552 5.95233C17.1149 6.12537 17.5315 6.39673 17.8757 6.74738C18.2262 7.09161 18.4976 7.508 18.6704 7.96777C18.8409 8.40613 18.9573 8.90692 18.9908 9.64044C19.0244 10.3752 19.0322 10.61 19.0322 12.4813C19.0322 14.3527 19.0244 14.5874 18.9907 15.3222Z" fill="black" fill-opacity="0.6"/>
</g>
<defs>
<clipPath id="clip0_17_45">
<rect width="24" height="24" fill="white" transform="translate(0.141602 0.481323)"/>
</clipPath>
</defs>
</svg>
