<svg width="25" height="25" viewBox="0 0 25 25" fill="none" xmlns="http://www.w3.org/2000/svg">
<g clip-path="url(#clip0_17_57)">
<path d="M14.5801 12.0347C14.5801 13.3032 13.5518 14.3315 12.2832 14.3315C11.0146 14.3315 9.98633 13.3032 9.98633 12.0347C9.98633 10.7661 11.0146 9.73779 12.2832 9.73779C13.5518 9.73779 14.5801 10.7661 14.5801 12.0347Z" fill="white" fill-opacity="0.6"/>
<path d="M17.6545 7.97089C17.5441 7.67169 17.368 7.40088 17.1391 7.17859C16.9168 6.94971 16.6462 6.77356 16.3468 6.66315C16.104 6.56885 15.7393 6.4566 15.0674 6.42603C14.3407 6.39288 14.1228 6.38574 12.283 6.38574C10.4429 6.38574 10.225 6.3927 9.49847 6.42584C8.82666 6.4566 8.46173 6.56885 8.21912 6.66315C7.91974 6.77356 7.64893 6.94971 7.42682 7.17859C7.19794 7.40088 7.02179 7.67151 6.91119 7.97089C6.81689 8.21368 6.70465 8.57861 6.67407 9.25043C6.64093 9.97699 6.63379 10.1949 6.63379 12.0349C6.63379 13.8748 6.64093 14.0927 6.67407 14.8194C6.70465 15.4912 6.81689 15.856 6.91119 16.0988C7.02179 16.3981 7.19775 16.6688 7.42664 16.8911C7.64893 17.1199 7.91956 17.2961 8.21893 17.4065C8.46173 17.501 8.82666 17.6132 9.49847 17.6438C10.225 17.6769 10.4427 17.6839 12.2828 17.6839C14.123 17.6839 14.3409 17.6769 15.0673 17.6438C15.7391 17.6132 16.104 17.501 16.3468 17.4065C16.9478 17.1747 17.4227 16.6997 17.6545 16.0988C17.7488 15.856 17.8611 15.4912 17.8918 14.8194C17.925 14.0927 17.9319 13.8748 17.9319 12.0349C17.9319 10.1949 17.925 9.97699 17.8918 9.25043C17.8613 8.57861 17.749 8.21368 17.6545 7.97089V7.97089ZM12.283 15.5731C10.3287 15.5731 8.74445 13.989 8.74445 12.0347C8.74445 10.0804 10.3287 8.4964 12.283 8.4964C14.2371 8.4964 15.8213 10.0804 15.8213 12.0347C15.8213 13.989 14.2371 15.5731 12.283 15.5731ZM15.9612 9.18341C15.5045 9.18341 15.1343 8.81317 15.1343 8.35651C15.1343 7.89984 15.5045 7.5296 15.9612 7.5296C16.4178 7.5296 16.7881 7.89984 16.7881 8.35651C16.7879 8.81317 16.4178 9.18341 15.9612 9.18341Z" fill="white" fill-opacity="0.6"/>
<path d="M12.2832 0.034668C5.6568 0.034668 0.283203 5.40826 0.283203 12.0347C0.283203 18.6611 5.6568 24.0347 12.2832 24.0347C18.9096 24.0347 24.2832 18.6611 24.2832 12.0347C24.2832 5.40826 18.9096 0.034668 12.2832 0.034668ZM19.1323 14.8755C19.0989 15.6091 18.9823 16.1099 18.812 16.5482C18.454 17.4738 17.7224 18.2055 16.7968 18.5635C16.3586 18.7338 15.8576 18.8502 15.1243 18.8837C14.3895 18.9172 14.1547 18.9253 12.2834 18.9253C10.4119 18.9253 10.1773 18.9172 9.44232 18.8837C8.70898 18.8502 8.20801 18.7338 7.76984 18.5635C7.30988 18.3904 6.89349 18.1193 6.54926 17.7686C6.19879 17.4246 5.92761 17.008 5.75458 16.5482C5.58429 16.11 5.46765 15.6091 5.43433 14.8757C5.40045 14.1407 5.39258 13.906 5.39258 12.0347C5.39258 10.1633 5.40045 9.92859 5.43414 9.19379C5.46747 8.46027 5.58392 7.95947 5.75421 7.52112C5.92725 7.06134 6.19861 6.64478 6.54926 6.30072C6.89331 5.95007 7.30988 5.67889 7.76965 5.50586C8.20801 5.33557 8.7088 5.21912 9.44232 5.18561C10.1771 5.1521 10.4119 5.14404 12.2832 5.14404C14.1545 5.14404 14.3893 5.1521 15.1241 5.18579C15.8576 5.21912 16.3584 5.33557 16.7968 5.50568C17.2565 5.67871 17.6731 5.95007 18.0173 6.30072C18.3678 6.64496 18.6392 7.06134 18.812 7.52112C18.9825 7.95947 19.0989 8.46027 19.1324 9.19379C19.166 9.92859 19.1738 10.1633 19.1738 12.0347C19.1738 13.906 19.166 14.1407 19.1323 14.8755V14.8755Z" fill="white" fill-opacity="0.6"/>
</g>
<defs>
<clipPath id="clip0_17_57">
<rect width="24" height="24" fill="white" transform="translate(0.283203 0.034668)"/>
</clipPath>
</defs>
</svg>
