<svg width="16" height="16" viewBox="0 0 16 16" fill="none" xmlns="http://www.w3.org/2000/svg">
<g clip-path="url(#clip0_21_386)">
<path d="M10.4644 8.01303L15.5212 11.2099V4.68115L10.4644 8.01303Z" fill="#333333"/>
<path d="M0.520996 4.68115V11.2099L5.57787 8.01303L0.520996 4.68115Z" fill="#333333"/>
<path d="M14.5837 2.77979H1.45869C0.990879 2.77979 0.619629 3.12854 0.549316 3.5776L8.02119 8.50041L15.4931 3.5776C15.4228 3.12854 15.0515 2.77979 14.5837 2.77979Z" fill="#333333"/>
<path d="M9.60516 8.57906L8.2786 9.45281C8.19985 9.50437 8.11079 9.52969 8.02079 9.52969C7.93079 9.52969 7.84172 9.50437 7.76297 9.45281L6.43641 8.57812L0.550781 12.3009C0.622969 12.7462 0.992344 13.0922 1.45828 13.0922H14.5833C15.0492 13.0922 15.4186 12.7462 15.4908 12.3009L9.60516 8.57906Z" fill="#333333"/>
</g>
<defs>
<clipPath id="clip0_21_386">
<rect width="15" height="15" fill="white" transform="translate(0.520996 0.436035)"/>
</clipPath>
</defs>
</svg>
