<svg width="16" height="16" viewBox="0 0 16 16" fill="none" xmlns="http://www.w3.org/2000/svg">
<g clip-path="url(#clip0_21_378)">
<path d="M15.097 11.884L13.0037 9.79068C12.2561 9.04308 10.9852 9.34215 10.6861 10.314C10.4618 10.9869 9.71423 11.3607 9.04138 11.2111C7.54617 10.8373 5.52764 8.89355 5.15384 7.32358C4.92955 6.65071 5.37812 5.9031 6.05096 5.67885C7.02285 5.37981 7.32189 4.10888 6.57429 3.36128L4.48099 1.26798C3.88291 0.744657 2.98578 0.744657 2.46246 1.26798L1.04201 2.68843C-0.378442 4.18364 1.19153 8.14595 4.70527 11.6597C8.21902 15.1734 12.1813 16.8182 13.6765 15.323L15.097 13.9025C15.6203 13.3044 15.6203 12.4073 15.097 11.884Z" fill="#333333"/>
</g>
<defs>
<clipPath id="clip0_21_378">
<rect width="15" height="15" fill="white" transform="translate(0.505371 0.875488)"/>
</clipPath>
</defs>
</svg>
