<svg width="16" height="16" viewBox="0 0 16 16" fill="none" xmlns="http://www.w3.org/2000/svg">
<g clip-path="url(#clip0_21_399)">
<path d="M8.05125 0.997559C5.02742 0.997559 2.56738 3.5018 2.56738 6.57994C2.56738 8.30172 3.43821 10.3916 5.15574 12.7914C6.41264 14.5477 7.6512 15.8002 7.70332 15.8527C7.79912 15.9492 7.92515 15.9976 8.05134 15.9976C8.17386 15.9976 8.29646 15.9519 8.3915 15.8604C8.44374 15.8101 9.68543 14.6082 10.9447 12.8762C12.6636 10.5119 13.5352 8.39354 13.5352 6.57991C13.5351 3.5018 11.075 0.997559 8.05125 0.997559ZM8.05125 8.98994C6.57292 8.98994 5.37025 7.78724 5.37025 6.30895C5.37025 4.83065 6.57295 3.62795 8.05125 3.62795C9.52954 3.62795 10.7322 4.83065 10.7322 6.30895C10.7322 7.78724 9.52951 8.98994 8.05125 8.98994Z" fill="#333333"/>
</g>
<defs>
<clipPath id="clip0_21_399">
<rect width="15" height="15" fill="white" transform="translate(0.55127 0.997559)"/>
</clipPath>
</defs>
</svg>
