<svg width="30" height="46" viewBox="0 0 30 46" fill="none" xmlns="http://www.w3.org/2000/svg">
<path d="M23.7603 15.3267C23.7603 10.2247 19.6192 6.01025 14.5317 6.01025C9.45087 6.01025 5.30322 10.2188 5.30322 15.3267C5.30322 20.4153 9.44313 24.5552 14.5317 24.5552C19.6203 24.5552 23.7603 20.4153 23.7603 15.3267ZM7.93994 15.3267C7.93994 11.6434 10.897 8.64697 14.5317 8.64697C18.1665 8.64697 21.1235 11.6434 21.1235 15.3267C21.1235 18.9614 18.1665 21.9185 14.5317 21.9185C10.897 21.9185 7.93994 18.9614 7.93994 15.3267Z" fill="white"/>
<path d="M29.0337 15.3267C29.0337 7.32756 22.5402 0.736816 14.5317 0.736816C6.97183 0.736816 0.0297852 6.77648 0.0297852 15.3267C0.0297852 20.6576 5.24926 28.7134 8.34828 33.1399C4.90323 33.8323 0.0297852 35.6203 0.0297852 39.145C0.0297852 44.1855 9.41835 45.7368 14.5317 45.7368C19.6456 45.7368 29.0337 44.1855 29.0337 39.145C29.0337 35.6201 24.1598 33.8322 20.7152 33.1399C23.7983 28.7361 29.0337 20.6637 29.0337 15.3267ZM2.6665 15.3267C2.6665 7.94358 8.82544 3.37354 14.5317 3.37354C21.0742 3.37354 26.397 8.73565 26.397 15.3267C26.397 20.9098 18.5956 31.9153 14.5316 37.0484C10.4673 31.9164 2.6665 20.9133 2.6665 15.3267V15.3267ZM26.397 39.145C26.397 41.3476 19.9404 43.1001 14.5317 43.1001C9.13024 43.1001 2.6665 41.3462 2.6665 39.145C2.6665 38.0957 5.02162 36.2766 10.0563 35.5167C11.9792 38.126 13.4265 39.8774 13.5167 39.9862C13.7671 40.2885 14.1392 40.4634 14.5317 40.4634C14.9243 40.4634 15.2964 40.2885 15.5468 39.9862C15.637 39.8774 17.0843 38.126 19.0071 35.5167C24.0419 36.2766 26.397 38.0957 26.397 39.145V39.145Z" fill="white"/>
</svg>
