<svg width="25" height="25" viewBox="0 0 25 25" fill="none" xmlns="http://www.w3.org/2000/svg">
<g clip-path="url(#clip0_17_43)">
<path d="M12.1416 24.4813C18.7706 24.4813 24.1416 19.1103 24.1416 12.4813C24.1416 5.85232 18.7706 0.481323 12.1416 0.481323C5.5126 0.481323 0.141602 5.85232 0.141602 12.4813C0.141602 19.1103 5.5126 24.4813 12.1416 24.4813ZM5.6326 12.2213L17.2026 7.76032C17.7396 7.56632 18.2086 7.89132 18.0346 8.70332L18.0356 8.70232L16.0656 17.9833C15.9196 18.6413 15.5286 18.8013 14.9816 18.4913L11.9816 16.2803L10.5346 17.6743C10.3746 17.8343 10.2396 17.9693 9.9296 17.9693L10.1426 14.9163L15.7026 9.89332C15.9446 9.68032 15.6486 9.56032 15.3296 9.77232L8.4586 14.0983L5.4966 13.1743C4.8536 12.9703 4.8396 12.5313 5.6326 12.2213Z" fill="black" fill-opacity="0.6"/>
</g>
<defs>
<clipPath id="clip0_17_43">
<rect width="24" height="24" fill="white" transform="translate(0.141602 0.481323)"/>
</clipPath>
</defs>
</svg>
