<svg width="25" height="25" viewBox="0 0 25 25" fill="none" xmlns="http://www.w3.org/2000/svg">
<g clip-path="url(#clip0_17_55)">
<path d="M12.2832 24.0347C18.9122 24.0347 24.2832 18.6637 24.2832 12.0347C24.2832 5.40567 18.9122 0.034668 12.2832 0.034668C5.6542 0.034668 0.283203 5.40567 0.283203 12.0347C0.283203 18.6637 5.6542 24.0347 12.2832 24.0347ZM5.7742 11.7747L17.3442 7.31367C17.8812 7.11967 18.3502 7.44467 18.1762 8.25667L18.1772 8.25567L16.2072 17.5367C16.0612 18.1947 15.6702 18.3547 15.1232 18.0447L12.1232 15.8337L10.6762 17.2277C10.5162 17.3877 10.3812 17.5227 10.0712 17.5227L10.2842 14.4697L15.8442 9.44667C16.0862 9.23367 15.7902 9.11367 15.4712 9.32567L8.6002 13.6517L5.6382 12.7277C4.9952 12.5237 4.9812 12.0847 5.7742 11.7747V11.7747Z" fill="white" fill-opacity="0.6"/>
</g>
<defs>
<clipPath id="clip0_17_55">
<rect width="24" height="24" fill="white" transform="translate(0.283203 0.034668)"/>
</clipPath>
</defs>
</svg>
